<?xml version="1.0" encoding="UTF-8"?>
<svg width="24px" height="24px" viewBox="0 0 24 24" version="1.1" xmlns="http://www.w3.org/2000/svg" xmlns:xlink="http://www.w3.org/1999/xlink">
    <!-- Generator: Sketch 49.3 (51167) - http://www.bohemiancoding.com/sketch -->
    <title>Icon/Mode/Black Circle/Mattapan</title>
    <desc>Created with Sketch.</desc>
    <defs></defs>
    <g id="Icon/Mode/Black-Circle/Mattapan" stroke="none" stroke-width="1" fill="none" fill-rule="evenodd">
        <path d="M0.5,11.9999048 C0.5,18.3514512 5.64849232,23.5 11.9999048,23.5 C18.351356,23.5 23.5,18.3514125 23.5,11.9999048 C23.5,5.64868278 18.3512608,0.5 11.9999048,0.5 C5.64858755,0.5 0.5,5.64864399 0.5,11.9999048 Z" id="Path" fill="#FFFFFF"></path>
        <path d="M0,11.9999086 C0,5.37250723 5.37244833,0 11.9999086,0 C18.6274013,0 24,5.37253975 24,11.9999086 C24,18.6275517 18.6274928,24 11.9999086,24 C5.37235691,24 0,18.6275842 0,11.9999086 Z M0.96,11.9999086 C0.96,18.0973932 5.90255262,23.04 11.9999086,23.04 C18.0973018,23.04 23.04,18.097356 23.04,11.9999086 C23.04,5.90273547 18.0972103,0.96 11.9999086,0.96 C5.90264404,0.96 0.96,5.90269823 0.96,11.9999086 Z" id="Fill-1-Copy" fill="#1C1E23" fill-rule="nonzero"></path>
        <path d="M13.4493999,15.1558568 C13.4493999,14.7566714 13.6762554,14.3967924 14.024184,14.2440308 C14.3721127,14.0912692 14.7725959,14.1757087 15.0388889,14.4579754 C15.305182,14.7402421 15.384843,15.1647483 15.2407263,15.5335475 C15.0966095,15.9023467 14.7570963,16.1428102 14.380501,16.1428102 C13.8662681,16.1428102 13.4493999,15.7009361 13.4493999,15.1558568 Z M14.1552477,19.1209097 L14.5618421,19.8734078 C14.575982,19.8975598 14.5756671,19.9282012 14.5610343,19.952021 C14.5464015,19.9758408 14.5200917,19.9885399 14.4935343,19.9846017 L8.9866201,19.9846017 C8.96006267,19.9885399 8.93375281,19.9758408 8.91912,19.952021 C8.9044872,19.9282012 8.90417235,19.8975598 8.91831224,19.8734078 L9.32490661,19.1209097 C9.34378332,19.0893435 9.37758107,19.0714309 9.412731,19.0743634 L14.0666102,19.0743634 C14.1015149,19.0715643 14.1350118,19.0894834 14.1536214,19.1209097 L14.1552477,19.1209097 Z M9.07769723,16.1428102 C8.70110199,16.1428102 8.36158874,15.9023467 8.21747198,15.5335475 C8.07335522,15.1647483 8.15301627,14.7402421 8.41930933,14.4579754 C8.68560238,14.1757087 9.08608556,14.0912692 9.4340142,14.2440308 C9.78194284,14.3967924 10.0087983,14.7566714 10.0087983,15.1558568 C10.0090144,15.4176833 9.91098585,15.6688518 9.73632368,15.8539911 C9.5616615,16.0391304 9.32470676,16.1430392 9.07769723,16.1428102 Z M13.2054433,17.3633569 L13.6120377,18.115855 C13.6261775,18.140007 13.6258627,18.1706484 13.6112299,18.1944682 C13.5965971,18.218288 13.5702872,18.2309871 13.5437298,18.2270489 L9.93479817,18.2270489 C9.90810231,18.2313859 9.8814686,18.2188445 9.86660874,18.1949397 C9.85174888,18.1710349 9.85138501,18.1401457 9.86567712,18.115855 C9.90471018,18.0451736 10.252755,17.4030074 10.2722715,17.3633569 C10.2906199,17.3316283 10.3243037,17.3136092 10.3592827,17.3168106 L13.1176189,17.3168106 C13.1527688,17.3138781 13.1865666,17.3317907 13.2054433,17.3633569 Z M8.13683786,8.35406716 C8.13683786,7.75068955 8.50358598,7.22833693 9.19398322,7.22833693 L14.2861711,7.22833693 C14.9773816,7.22833693 15.3433165,7.75241349 15.3433165,8.35406716 L15.3433165,9.80475934 C15.3490088,10.5003675 14.8708538,10.9253178 14.2861711,10.9253178 L9.19479641,10.9253178 C8.61011371,10.9253178 8.13114554,10.4995056 8.13765105,9.80475934 L8.13765105,8.35406716 L8.13683786,8.35406716 Z M10.3625354,5.78885033 C10.3673485,5.58824012 10.521269,5.42775504 10.7105802,5.4259618 L12.7712005,5.4259618 C12.9605117,5.42775504 13.1144322,5.58824012 13.1192453,5.78885033 L13.1192453,6.42756864 C13.1179073,6.63044861 12.9626035,6.79429905 12.7712005,6.79476701 L10.7105802,6.79476701 C10.5191772,6.79429905 10.3638734,6.63044861 10.3625354,6.42756864 L10.3625354,5.78885033 Z M10.9041191,3.27017978 C11.1383175,3.26328403 11.4017907,3.25983616 11.6986045,3.25983616 C11.9954184,3.25983616 12.2613312,3.25983616 12.4963427,3.26845584 L11.9628909,4.96136103 L11.5416591,4.96136103 L10.9041191,3.27017978 Z M16.4817807,7.13783029 C16.4817807,6.00348037 15.5815808,4.962223 14.3577317,4.962223 L12.2076607,4.962223 L12.7207828,3.33396541 C12.7263903,3.31562488 12.7280574,3.29618723 12.7256619,3.27707552 C14.0503464,3.32362179 14.2861711,3.45895077 14.320325,3.52532231 C14.3211966,3.57151504 14.3452509,3.61370601 14.3834269,3.63600229 C14.4216029,3.65829857 14.4681008,3.65731283 14.5054052,3.63341638 C14.5427097,3.60951994 14.5651532,3.56634323 14.5642817,3.5201505 C14.5635956,3.44993756 14.5360022,3.38303909 14.4878419,3.33482738 C14.264215,3.09778617 13.4518395,3.00124575 11.6855935,3.00124575 C11.0367699,2.99345289 10.3880141,3.02222576 9.74207244,3.08744256 C9.07769723,3.16760558 8.80690538,3.29345291 8.80690538,3.51842657 C8.80472645,3.56461929 8.82596197,3.60853531 8.86261272,3.63363188 C8.89926348,3.65872844 8.94576135,3.6611928 8.98459103,3.64009664 C9.02342072,3.61900048 9.04868307,3.57754881 9.05086201,3.53135609 C9.07688405,3.49773933 9.27367572,3.33396541 10.6455251,3.27793749 C10.6430671,3.29866518 10.6455844,3.3197152 10.6528438,3.33913722 L11.2643618,4.96049907 L9.12404899,4.96049907 C7.90426588,4.96049907 7,6.00175643 7,7.13610635 L7,15.1748201 C7,16.2738293 7.81318874,17.1763099 8.62637748,17.3150867 L9.35824735,17.3150867 L7.35048435,21 L8.29703604,21 L8.34094823,20.918113 C8.36688141,20.8676034 8.4168074,20.8361816 8.47105843,20.8362261 L15.000964,20.8362261 C15.0552639,20.8359923 15.1052745,20.8674673 15.1310742,20.918113 L15.1757996,21 L16.1223513,21 L14.1194674,17.3150867 L14.8513373,17.3150867 C15.664526,17.1763099 16.4777148,16.2738293 16.4777148,15.1748201 L16.4817807,7.13783029 Z" id="Trolley" fill="#1C1E23" fill-rule="nonzero"></path>
    </g>
</svg>